/* XPM */
static char *close_prelight[] = {
/* columns rows colors chars-per-pixel */
"46 30 21 1 ",
"  c #D64541",
". c #D64642",
"X c #D64743",
"o c #D74844",
"O c #E08480",
"+ c #E08581",
"@ c #E08582",
"# c #E39592",
"$ c #E39593",
"% c #E49996",
"& c #E49A97",
"* c #E49B98",
"= c #E49C99",
"- c #E49D9A",
"; c #E5A19D",
": c #E8B0AD",
"> c #E8B1AE",
", c #E8B6B3",
"< c #E8B7B3",
"1 c #F2EFED",
"2 c #F2F1EF",
/* pixels */
"                                              ",
"                                              ",
"                                              ",
"                                              ",
"                                              ",
"                                              ",
"                                              ",
"                                              ",
"                                              ",
"                                              ",
"                  2&      *1                  ",
"                  *2*    &1+                  ",
"                   &2=  %1O                   ",
"                    %2-%1O                    ",
"                     %22@                     ",
"                     =22<o                    ",
"                    =2;#2,X                   ",
"                   =2=  &2>.                  ",
"                  *2*    *2:                  ",
"                  2*      $2                  ",
"                                              ",
"                                              ",
"                                              ",
"                                              ",
"                                              ",
"                                              ",
"                                              ",
"                                              ",
"                                              ",
"                                              "
};
