/* XPM */
static char *maximize_prelight[] = {
/* columns rows colors chars-per-pixel */
"46 30 4 1 ",
"  c #4D5050",
". c #6C6F6F",
"X c #8C8E8E",
"o c #ABADAD",
/* pixels */
"oooooooooooooooooooooooooooooooooooooooooooooo",
"oooooooooooooooooooooooooooooooooooooooooooooo",
"oooooooooooooooooooooooooooooooooooooooooooooo",
"oooooooooooooooooooooooooooooooooooooooooooooo",
"oooooooooooooooooooooooooooooooooooooooooooooo",
"oooooooooooooooooooooooooooooooooooooooooooooo",
"oooooooooooooooooooooooooooooooooooooooooooooo",
"oooooooooooooooooooooooooooooooooooooooooooooo",
"oooooooooooooooooooooooooooooooooooooooooooooo",
"oooooooooooooooooX..........Xooooooooooooooooo",
"ooooooooooooooooo. ........ .ooooooooooooooooo",
"ooooooooooooooooo..oooooooo..ooooooooooooooooo",
"ooooooooooooooooo..oooooooo..ooooooooooooooooo",
"ooooooooooooooooo..oooooooo..ooooooooooooooooo",
"ooooooooooooooooo..oooooooo..ooooooooooooooooo",
"ooooooooooooooooo..oooooooo..ooooooooooooooooo",
"ooooooooooooooooo..oooooooo..ooooooooooooooooo",
"ooooooooooooooooo..oooooooo..ooooooooooooooooo",
"ooooooooooooooooo..oooooooo..ooooooooooooooooo",
"ooooooooooooooooo. ........ .ooooooooooooooooo",
"oooooooooooooooooX..........Xooooooooooooooooo",
"oooooooooooooooooooooooooooooooooooooooooooooo",
"oooooooooooooooooooooooooooooooooooooooooooooo",
"oooooooooooooooooooooooooooooooooooooooooooooo",
"oooooooooooooooooooooooooooooooooooooooooooooo",
"oooooooooooooooooooooooooooooooooooooooooooooo",
"oooooooooooooooooooooooooooooooooooooooooooooo",
"oooooooooooooooooooooooooooooooooooooooooooooo",
"oooooooooooooooooooooooooooooooooooooooooooooo",
"oooooooooooooooooooooooooooooooooooooooooooooo"
};
